<svg width="496" height="496" viewBox="0 0 496 496" fill="none" xmlns="http://www.w3.org/2000/svg">
<path d="M260 296H256V280H240V296H236C216.152 296 200 312.152 200 332C200 351.848 216.152 368 236 368H260C271.024 368 280 376.968 280 388C280 399.032 271.024 408 260 408H236C224.976 408 216 399.032 216 388V384H200V388C200 407.848 216.152 424 236 424H240V440H256V424H260C279.848 424 296 407.848 296 388C296 368.152 279.848 352 260 352H236C224.976 352 216 343.032 216 332C216 320.968 224.976 312 236 312H260C271.024 312 280 320.968 280 332V336H296V332C296 312.152 279.848 296 260 296Z" fill="#5EA9FF"/>
<path d="M184 392H168V408H184V392Z" fill="#5EA9FF"/>
<path d="M200 416H184V432H200V416Z" fill="#5EA9FF"/>
<path d="M216 440H200V456H216V440Z" fill="#5EA9FF"/>
<path d="M124 240H100C88.976 240 80 231.032 80 220C80 208.968 88.976 200 100 200H124C135.024 200 144 208.968 144 220V224H160V220C160 200.152 143.848 184 124 184H120V168H104V184H100C80.152 184 64 200.152 64 220C64 239.848 80.152 256 100 256H124C135.024 256 144 264.968 144 276C144 287.032 135.024 296 124 296H100C88.976 296 80 287.032 80 276V272H64V276C64 295.848 80.152 312 100 312H104V328H120V312H124C143.848 312 160 295.848 160 276C160 256.152 143.848 240 124 240Z" fill="#5EA9FF"/>
<path d="M48 280H32V296H48V280Z" fill="#5EA9FF"/>
<path d="M64 304H48V320H64V304Z" fill="#5EA9FF"/>
<path d="M80 328H64V344H80V328Z" fill="#5EA9FF"/>
<path d="M396 184H392V168H376V184H372C352.152 184 336 200.152 336 220C336 239.848 352.152 256 372 256H396C407.024 256 416 264.968 416 276C416 287.032 407.024 296 396 296H372C360.976 296 352 287.032 352 276V272H336V276C336 295.848 352.152 312 372 312H376V328H392V312H396C415.848 312 432 295.848 432 276C432 256.152 415.848 240 396 240H372C360.976 240 352 231.032 352 220C352 208.968 360.976 200 372 200H396C407.024 200 416 208.968 416 220V224H432V220C432 200.152 415.848 184 396 184Z" fill="#5EA9FF"/>
<path d="M477.904 201.792L384 57.32L290.096 201.792C286.424 207.44 283.328 213.44 280.736 219.688L248 169.32L215.264 219.68C212.672 213.432 209.576 207.44 205.904 201.784L112 57.32L18.096 201.792C6.256 220.008 0 241.112 0 262.832V272C0 333.76 50.24 384 112 384C120.072 384 128.104 383.056 136 381.312V384C136 445.76 186.24 496 248 496C309.76 496 360 445.76 360 384V381.312C367.896 383.056 375.928 384 384 384C445.76 384 496 333.76 496 272V262.832C496 241.112 489.744 220.008 477.904 201.792ZM112 368C59.064 368 16 324.936 16 272V262.832C16 244.216 21.36 226.128 31.504 210.512L112 86.68L192.496 210.512C197.696 218.512 201.584 227.32 204.224 236.672L154.096 313.792C144.104 329.168 138.144 346.608 136.512 364.728C128.48 366.856 120.264 368 112 368ZM344 384C344 436.936 300.936 480 248 480C195.064 480 152 436.936 152 384V374.832C152 356.216 157.36 338.128 167.504 322.512L248 198.68L328.496 322.512C338.64 338.128 344 356.208 344 374.832V384ZM480 272C480 324.936 436.936 368 384 368C375.736 368 367.52 366.856 359.496 364.728C357.864 346.608 351.896 329.168 341.912 313.792L291.784 236.672C294.424 227.32 298.312 218.512 303.512 210.512L384 86.68L464.496 210.512C474.64 226.128 480 244.208 480 262.832V272Z" fill="#5EA9FF"/>
<path d="M120 0H104V40H120V0Z" fill="#5EA9FF"/>
<path d="M88 16H72V56H88V16Z" fill="#5EA9FF"/>
<path d="M56 0H40V96H56V0Z" fill="#5EA9FF"/>
<path d="M56 112H40V128H56V112Z" fill="#5EA9FF"/>
<path d="M24 40H8V144H24V40Z" fill="#5EA9FF"/>
<path d="M24 160H8V176H24V160Z" fill="#5EA9FF"/>
<path d="M152 0H136V40H152V0Z" fill="#5EA9FF"/>
<path d="M152 56H136V72H152V56Z" fill="#5EA9FF"/>
<path d="M184 24H168V96H184V24Z" fill="#5EA9FF"/>
<path d="M184 112H168V128H184V112Z" fill="#5EA9FF"/>
<path d="M216 40H200V144H216V40Z" fill="#5EA9FF"/>
<path d="M216 160H200V176H216V160Z" fill="#5EA9FF"/>
<path d="M392 0H376V40H392V0Z" fill="#5EA9FF"/>
<path d="M424 16H408V56H424V16Z" fill="#5EA9FF"/>
<path d="M456 32H440V80H456V32Z" fill="#5EA9FF"/>
<path d="M456 96H440V128H456V96Z" fill="#5EA9FF"/>
<path d="M488 0H472V128H488V0Z" fill="#5EA9FF"/>
<path d="M488 144H472V160H488V144Z" fill="#5EA9FF"/>
<path d="M360 16H344V72H360V16Z" fill="#5EA9FF"/>
<path d="M328 0H312V96H328V0Z" fill="#5EA9FF"/>
<path d="M328 112H312V128H328V112Z" fill="#5EA9FF"/>
<path d="M296 32H280V112H296V32Z" fill="#5EA9FF"/>
<path d="M296 128H280V144H296V128Z" fill="#5EA9FF"/>
</svg>
