<svg width="496" height="496" viewBox="0 0 496 496" fill="none" xmlns="http://www.w3.org/2000/svg">
<path d="M496 480H480V496H496V480Z" fill="#5EA9FF"/>
<path d="M496 176V160H336V176H352V248H336V264H352V336H327.2L296.888 48H312V0H216V48H231.112L200.8 336H187.72L63.664 188.68C61.976 172.608 48.512 160 32 160C14.352 160 0 174.352 0 192C0 206.872 10.232 219.288 24 222.864V480H0V496H464V480H448V400H496V336H480V264H496V248H480V176H496ZM368 176H464V248H368V176ZM368 264H464V336H368V264ZM310.624 331.312L243.312 264H303.536L310.624 331.312ZM301.096 240.816L249.96 184H295.112L301.096 240.816ZM242.992 88L247.2 48H280.8L285.008 88H242.992ZM286.696 104L292.24 156.68L255.368 104H286.696ZM280.632 168H234.568L240.592 110.792L280.632 168ZM232 16H296V32H295.2H232.8H232V16ZM232.424 188.424L286.04 248H226.152L232.424 188.424ZM224.104 267.416L292.688 336H216.88L224.104 267.416ZM166.8 336H132.208L121.208 320H153.328L166.8 336ZM115.968 275.632L139.856 304H110.208L106.672 298.856L115.968 275.632ZM104.288 261.752L95.784 283.008L66.704 240.712L97.784 254.032L104.288 261.752ZM59.344 208.384L74.856 226.808L51.816 216.936C54.808 214.544 57.36 211.68 59.344 208.384ZM16 192C16 183.176 23.176 176 32 176C40.824 176 48 183.176 48 192C48 200.824 40.824 208 32 208C23.176 208 16 200.824 16 192ZM104 480H40V230.12L88.64 300.864L88.576 301.032L88.824 301.128L112.792 336H56V400H104V480ZM184 448H176V464H184V480H120V464H160V448H120V400H184V448ZM352 480H200V400H352V480ZM432 448H424V464H432V480H368V464H408V448H368V400H432V448ZM480 384H72V352H199.12H328.88H480V384Z" fill="#5EA9FF"/>
<path d="M400 192H384V208H400V192Z" fill="#5EA9FF"/>
<path d="M432 192H416V208H432V192Z" fill="#5EA9FF"/>
<path d="M448 304H432V320H448V304Z" fill="#5EA9FF"/>
<path d="M416 304H400V320H416V304Z" fill="#5EA9FF"/>
</svg>
