<svg width="512" height="512" viewBox="0 0 512 512" fill="none" xmlns="http://www.w3.org/2000/svg">
<path d="M169.408 373.905L160.704 360.488L256.001 298.729L351.288 360.488L342.584 373.905L256.001 317.792L169.408 373.905Z" fill="#222020"/>
<path d="M263.997 248.377H247.997V311.695H263.997V248.377Z" fill="#222020"/>
<path d="M255.918 215.996C315.564 215.996 363.916 167.644 363.916 107.998C363.916 48.3524 315.564 0 255.918 0C196.272 0 147.92 48.3524 147.92 107.998C147.92 167.644 196.272 215.996 255.918 215.996Z" fill="#5EA9FF"/>
<path d="M293.04 58.944L238.096 126.713L215.008 103.92L199.776 120.697L239.881 160.272L309.952 73.856L293.04 58.944Z" fill="white"/>
<path d="M82.757 413.101C105.61 413.101 124.136 394.575 124.136 371.722C124.136 348.869 105.61 330.343 82.757 330.343C59.904 330.343 41.378 348.869 41.378 371.722C41.378 394.575 59.904 413.101 82.757 413.101Z" fill="#BBBBBB"/>
<path d="M80.92 512.001L41.384 425.561C41.384 425.561 0 426.481 0 464.184V512H80.92V512.001Z" fill="#333333"/>
<path d="M84.6 512.001L124.144 425.561C124.144 425.561 165.528 426.481 165.528 464.184V512H84.6V512.001Z" fill="#333333"/>
<path d="M53.84 425.561L82.76 489.928L111.68 425.561H53.84Z" fill="#5EA9FF"/>
<path d="M429.238 413.101C452.091 413.101 470.617 394.575 470.617 371.722C470.617 348.869 452.091 330.343 429.238 330.343C406.385 330.343 387.859 348.869 387.859 371.722C387.859 394.575 406.385 413.101 429.238 413.101Z" fill="#BBBBBB"/>
<path d="M427.4 512.001L387.856 425.561C387.856 425.561 346.472 426.481 346.472 464.184V512H427.4V512.001Z" fill="#333333"/>
<path d="M431.08 512.001L470.624 425.561C470.624 425.561 512 426.481 512 464.184V512H431.08V512.001Z" fill="#333333"/>
<path d="M400.32 425.561L429.241 489.928L458.16 425.561H400.32Z" fill="#5EA9FF"/>
</svg>
