<svg width="496" height="491" viewBox="0 0 496 491" fill="none" xmlns="http://www.w3.org/2000/svg">
<path d="M496 474.816H480V490.816H496V474.816Z" fill="#5EA9FF"/>
<path d="M392 410.816H324.384L302.24 274.816H320V226.816H294.432L281.408 146.816H296V98.816H281.912C285.888 92.504 288 84.448 288 74.816C288 20.376 244.576 3.968 242.736 3.296L233.664 0L232.112 9.512C229.496 25.456 224.432 32.848 219.544 40C213.864 48.296 208 56.872 208 74.816C208 84.616 209.864 92.6 213.512 98.816H200V146.816H214.592L201.568 226.816H176V274.816H193.752L171.608 410.816H104V474.816H0V490.816H464V474.816H392V410.816ZM161.192 474.816H120V426.816H169.008L161.192 474.816ZM232.744 49.04C236.992 42.832 242.064 35.416 245.568 22.816C255.84 29.64 272 45.096 272 74.816C272 91.64 264.824 98.816 248 98.816C235.352 98.816 224 96.984 224 74.816C224 61.816 227.664 56.464 232.744 49.04ZM216 114.816H280V130.816H216V114.816ZM265.944 186.608L219.232 217.912L228.664 159.976L265.944 186.608ZM237.768 146.816H265.2L268.8 168.984L237.768 146.816ZM273.936 200.512L278.216 226.816H234.68L273.936 200.512ZM192 258.816V242.816H304V258.816H192ZM296.472 338.936L213.12 274.816H286.032L296.472 338.936ZM207.4 290.6L295.904 358.68L183.768 435.768L207.4 290.6ZM177.408 474.816L180.296 457.072L180.528 457.408L302.144 373.8L318.592 474.816H177.408ZM376 474.816H334.808L326.992 426.816H376V474.816Z" fill="#5EA9FF"/>
<path d="M360 442.816H344V458.816H360V442.816Z" fill="#5EA9FF"/>
<path d="M152 442.816H136V458.816H152V442.816Z" fill="#5EA9FF"/>
</svg>
