<svg width="123" height="123" viewBox="0 0 123 123" fill="none" xmlns="http://www.w3.org/2000/svg">
<path d="M19.5 24.2C26.1826 24.2 31.6 18.7826 31.6 12.1C31.6 5.41735 26.1826 0 19.5 0C12.8173 0 7.39999 5.41735 7.39999 12.1C7.39999 18.7826 12.8173 24.2 19.5 24.2Z" fill="#5EA9FF"/>
<path d="M6 66.599H7.2V90.599C7.2 93.9 9.9 96.599 13.2 96.599H25.8C29.1 96.599 31.8 93.9 31.8 90.599V89.2C30.7 87.099 30 84.7 30 82.2V50.8C30 44.7 33.7 39.4 39 37.1V34.7C39 31.4 36.3 28.7 33 28.7H6C2.7 28.7 0 31.4 0 34.7V60.6C0 63.9 2.6 66.599 6 66.599Z" fill="#5EA9FF"/>
<path d="M103.3 24.2C109.983 24.2 115.4 18.7826 115.4 12.1C115.4 5.41735 109.983 0 103.3 0C96.6174 0 91.2 5.41735 91.2 12.1C91.2 18.7826 96.6174 24.2 103.3 24.2Z" fill="#5EA9FF"/>
<path d="M83.699 34.6V37C89 39.3 92.699 44.6 92.699 50.7V82C92.699 84.5 92.099 86.9 90.9 89V90.4C90.9 93.7 93.599 96.4 96.9 96.4H109.5C112.8 96.4 115.5 93.7 115.5 90.4V66.4H116.699C120 66.4 122.699 63.7 122.699 60.4V34.6C122.699 31.3 120 28.6 116.699 28.6H89.699C86.4 28.6 83.699 31.299 83.699 34.6Z" fill="#5EA9FF"/>
<path d="M39.1 50.799V60.599V82.199C39.1 85.499 41.8 88.199 45.1 88.199H47.4V116.499C47.4 119.799 50.1 122.499 53.4 122.499H69.5C72.8 122.499 75.5 119.799 75.5 116.499V88.099H77.8C81.1 88.099 83.8 85.4 83.8 82.099V60.6V50.8C83.8 47.5 81.1 44.8 77.8 44.8H45.1C41.7 44.799 39.1 47.5 39.1 50.799Z" fill="#5EA9FF"/>
<path d="M61.4 39.8C69.0768 39.8 75.3 33.5768 75.3 25.9C75.3 18.2232 69.0768 12 61.4 12C53.7232 12 47.5 18.2232 47.5 25.9C47.5 33.5768 53.7232 39.8 61.4 39.8Z" fill="#5EA9FF"/>
</svg>
